<svg width="600" height="529" viewBox="0 0 600 529" fill="none" xmlns="http://www.w3.org/2000/svg">
<path d="M0 0H600V529H0V0Z" fill="url(#paint0_linear_11_38)" fill-opacity="0.95"/>
<path d="M180.375 209.75H297.375V226.625H180.375V209.75ZM229.875 224.825H247.875V356H229.875V224.825ZM308.806 308.525H325.006C325.456 314.825 327.331 320.45 330.631 325.4C333.931 330.35 338.431 334.25 344.131 337.1C349.981 339.95 356.806 341.375 364.606 341.375C371.356 341.375 376.981 340.4 381.481 338.45C386.131 336.35 389.581 333.5 391.831 329.9C394.231 326.3 395.431 322.1 395.431 317.3C395.431 312.35 394.231 308.375 391.831 305.375C389.431 302.375 385.981 299.825 381.481 297.725C376.981 295.625 371.656 293.6 365.506 291.65C359.656 289.85 353.731 287.75 347.731 285.35C341.731 282.95 336.106 280.025 330.856 276.575C325.756 273.125 321.631 269 318.481 264.2C315.331 259.25 313.756 253.325 313.756 246.425C313.756 239.675 315.556 233.375 319.156 227.525C322.906 221.525 328.306 216.725 335.356 213.125C342.556 209.375 351.181 207.5 361.231 207.5C376.981 207.5 388.756 211.775 396.556 220.325C404.356 228.875 408.106 240.2 407.806 254.3H391.606C391.306 243.65 388.306 236 382.606 231.35C376.906 226.7 369.481 224.375 360.331 224.375C352.681 224.375 346.006 226.175 340.306 229.775C334.606 233.225 331.756 238.7 331.756 246.2C331.756 249.5 332.356 252.425 333.556 254.975C334.906 257.375 337.006 259.625 339.856 261.725C342.856 263.825 346.831 265.925 351.781 268.025C356.881 269.975 363.106 272.15 370.456 274.55C375.256 276.05 380.131 277.85 385.081 279.95C390.181 282.05 394.831 284.675 399.031 287.825C403.381 290.975 406.831 295.025 409.381 299.975C412.081 304.775 413.431 310.85 413.431 318.2C413.431 325.25 411.706 331.85 408.256 338C404.956 344 399.706 348.875 392.506 352.625C385.456 356.375 376.306 358.25 365.056 358.25C355.456 358.25 347.206 356.975 340.306 354.425C333.556 351.725 328.006 348.275 323.656 344.075C319.306 339.875 315.931 335.525 313.531 331.025C311.281 326.375 309.781 322.025 309.031 317.975C308.281 313.925 308.206 310.775 308.806 308.525Z" fill="black"/>
<path d="M527.979 46.3585C527.625 40.847 522.87 36.6663 517.358 37.0206L427.544 42.7944C422.032 43.1487 417.852 47.9039 418.206 53.4153C418.56 58.9268 423.315 63.1075 428.827 62.7532L508.662 57.6209L513.794 137.456C514.149 142.968 518.904 147.148 524.415 146.794C529.927 146.44 534.108 141.685 533.753 136.173L527.979 46.3585ZM387 196L394.51 202.603L525.51 53.6029L518 47L510.49 40.3971L379.49 189.397L387 196Z" fill="url(#paint1_linear_11_38)"/>
<defs>
<linearGradient id="paint0_linear_11_38" x1="-86.9998" y1="-198" x2="-86.9998" y2="331" gradientUnits="userSpaceOnUse">
<stop stop-color="#7C7CEE"/>
<stop offset="0.75" stop-color="#F9EDE4"/>
</linearGradient>
<linearGradient id="paint1_linear_11_38" x1="518.376" y1="47.3301" x2="387.376" y2="196.33" gradientUnits="userSpaceOnUse">
<stop offset="0.495192" stop-color="#D2D5FB"/>
<stop offset="0.918269" stop-color="#7D7F95"/>
</linearGradient>
</defs>
</svg>
